<svg width="15" height="16" viewBox="0 0 15 16" fill="none" xmlns="http://www.w3.org/2000/svg">
<g clip-path="url(#clip0_16_3741)">
<path d="M1.16379 14.8571H13.8366V5.71429H1.16379V14.8571ZM4.62001 4V1.42857C4.62001 1.34524 4.59301 1.27679 4.53901 1.22321C4.485 1.16964 4.416 1.14286 4.332 1.14286H3.75596C3.67195 1.14286 3.60295 1.16964 3.54895 1.22321C3.49494 1.27679 3.46794 1.34524 3.46794 1.42857V4C3.46794 4.08333 3.49494 4.15179 3.54895 4.20536C3.60295 4.25893 3.67195 4.28571 3.75596 4.28571H4.332C4.416 4.28571 4.485 4.25893 4.53901 4.20536C4.59301 4.15179 4.62001 4.08333 4.62001 4ZM11.5325 4V1.42857C11.5325 1.34524 11.5055 1.27679 11.4515 1.22321C11.3974 1.16964 11.3284 1.14286 11.2444 1.14286H10.6684C10.5844 1.14286 10.5154 1.16964 10.4614 1.22321C10.4074 1.27679 10.3804 1.34524 10.3804 1.42857V4C10.3804 4.08333 10.4074 4.15179 10.4614 4.20536C10.5154 4.25893 10.5844 4.28571 10.6684 4.28571H11.2444C11.3284 4.28571 11.3974 4.25893 11.4515 4.20536C11.5055 4.15179 11.5325 4.08333 11.5325 4ZM14.9887 3.42857V14.8571C14.9887 15.1667 14.8747 15.4345 14.6467 15.6607C14.4186 15.8869 14.1486 16 13.8366 16H1.16379C0.851772 16 0.581755 15.8869 0.353741 15.6607C0.125726 15.4345 0.0117188 15.1667 0.0117188 14.8571V3.42857C0.0117188 3.11905 0.125726 2.85119 0.353741 2.625C0.581755 2.39881 0.851772 2.28571 1.16379 2.28571H2.31587V1.42857C2.31587 1.03571 2.45688 0.699405 2.73889 0.419643C3.02091 0.139881 3.35993 0 3.75596 0H4.332C4.72802 0 5.06704 0.139881 5.34906 0.419643C5.63108 0.699405 5.77209 1.03571 5.77209 1.42857V2.28571H9.22831V1.42857C9.22831 1.03571 9.36932 0.699405 9.65134 0.419643C9.93335 0.139881 10.2724 0 10.6684 0H11.2444C11.6405 0 11.9795 0.139881 12.2615 0.419643C12.5435 0.699405 12.6845 1.03571 12.6845 1.42857V2.28571H13.8366C14.1486 2.28571 14.4186 2.39881 14.6467 2.625C14.8747 2.85119 14.9887 3.11905 14.9887 3.42857Z" fill="#AAAAAA"/>
</g>
<defs>
<clipPath id="clip0_16_3741">
<rect width="15" height="16" fill="white"/>
</clipPath>
</defs>
</svg>
