<svg width="15" height="12" viewBox="0 0 15 12" fill="none" xmlns="http://www.w3.org/2000/svg">
<g clip-path="url(#clip0_16_3753)">
<path d="M14.0195 5C14.0195 5.90625 13.707 6.74349 13.082 7.51172C12.457 8.27995 11.6081 8.88672 10.5352 9.33203C9.46224 9.77734 8.29036 10 7.01953 10C6.65495 10 6.27734 9.97917 5.88672 9.9375C4.85547 10.849 3.65755 11.4792 2.29297 11.8281C2.03776 11.901 1.74089 11.9583 1.40234 12C1.3138 12.0104 1.23438 11.987 1.16406 11.9297C1.09375 11.8724 1.04818 11.7969 1.02734 11.7031V11.6953C1.01172 11.6745 1.01042 11.6432 1.02344 11.6016C1.03646 11.5599 1.04167 11.5339 1.03906 11.5234C1.03646 11.513 1.04818 11.4883 1.07422 11.4492L1.12109 11.3789L1.17578 11.3125L1.23828 11.2422C1.27474 11.2005 1.35547 11.1107 1.48047 10.9727C1.60547 10.8346 1.69531 10.7357 1.75 10.6758C1.80469 10.6159 1.88542 10.513 1.99219 10.3672C2.09896 10.2214 2.18359 10.0885 2.24609 9.96875C2.30859 9.84896 2.37891 9.69531 2.45703 9.50781C2.53516 9.32031 2.60286 9.1224 2.66016 8.91406C1.84245 8.45052 1.19792 7.8776 0.726562 7.19531C0.255208 6.51302 0.0195312 5.78125 0.0195312 5C0.0195312 4.32292 0.204427 3.67578 0.574219 3.05859C0.94401 2.44141 1.44141 1.90885 2.06641 1.46094C2.69141 1.01302 3.4362 0.657552 4.30078 0.394531C5.16536 0.13151 6.07161 0 7.01953 0C8.29036 0 9.46224 0.222656 10.5352 0.667969C11.6081 1.11328 12.457 1.72005 13.082 2.48828C13.707 3.25651 14.0195 4.09375 14.0195 5Z" fill="#AAAAAA"/>
</g>
<defs>
<clipPath id="clip0_16_3753">
<rect width="14.04" height="12" fill="white"/>
</clipPath>
</defs>
</svg>
