<svg width="73" height="64" viewBox="0 0 73 64" fill="none" xmlns="http://www.w3.org/2000/svg">
<path d="M8.51709 20.372C9.47282 14.5252 11.8505 9.02086 15.6641 5.09546C16.2796 10.0698 19.0301 14.5749 22.4056 19.1794C21.5524 22.4975 21.0769 25.9922 21.0255 29.6029C16.5313 26.3787 11.9438 23.5298 8.51709 20.372Z" fill="#5B78CD"/>
<path d="M36.1679 0C27.8739 6.60304 22.3214 17.6616 21.9623 30.2824C28.1069 34.7764 33.916 40.0654 36.1679 47.8996C38.415 40.0654 44.2239 34.7764 50.3687 30.2824C50.0096 17.6616 44.4571 6.60304 36.1679 0Z" fill="#5B78CD"/>
<path d="M7.91072 50.4389C0.609834 40.5178 -1.5767 27.3835 1.09936 15.5576C6.68925 30.3041 41.8557 31.364 36.1678 63.1812C25.9112 64.7105 15.2163 60.36 7.91072 50.4389Z" fill="#5B78CD"/>
<path d="M63.8142 20.372C62.8586 14.5252 60.4808 9.02086 56.6671 5.09546C56.0518 10.0698 53.3011 14.5749 49.9258 19.1794C50.779 22.4975 51.2545 25.9922 51.3057 29.6029C55.8 26.3787 60.3875 23.5298 63.8142 20.372Z" fill="#5B78CD"/>
<path d="M64.4203 50.4389C71.7211 40.5178 73.9076 27.3835 71.2316 15.5576C65.6417 30.3041 30.4754 31.364 36.1678 63.1812C46.4198 64.7105 57.1147 60.36 64.4203 50.4389Z" fill="#5B78CD"/>
</svg>
