<svg width="150" height="41" viewBox="0 0 150 41" fill="none" xmlns="http://www.w3.org/2000/svg">
<g clip-path="url(#clip0_1_659)">
<path d="M5.40552 12.9294C6.01209 9.21868 7.52113 5.72524 9.9415 3.23392C10.3321 6.39099 12.0778 9.25022 14.2201 12.1725C13.6786 14.2784 13.3768 16.4964 13.3442 18.788C10.4919 16.7417 7.58031 14.9336 5.40552 12.9294Z" fill="#5B78CD"/>
<path d="M22.9545 0C17.6906 4.19073 14.1666 11.2092 13.9387 19.2192C17.8385 22.0714 21.5253 25.4282 22.9545 30.4003C24.3807 25.4282 28.0674 22.0714 31.9673 19.2192C31.7394 11.2092 28.2154 4.19073 22.9545 0Z" fill="#5B78CD"/>
<path d="M5.02067 32.0119C0.387041 25.7153 -1.00068 17.3794 0.697726 9.87391C4.24544 19.233 26.5644 19.9057 22.9545 40.099C16.445 41.0696 9.65726 38.3085 5.02067 32.0119Z" fill="#5B78CD"/>
<path d="M40.5008 12.9294C39.8943 9.21868 38.3852 5.72524 35.9648 3.23392C35.5743 6.39099 33.8285 9.25022 31.6863 12.1725C32.2278 14.2784 32.5296 16.4964 32.5621 18.788C35.4145 16.7417 38.326 14.9336 40.5008 12.9294Z" fill="#5B78CD"/>
<path d="M40.8854 32.0119C45.519 25.7153 46.9067 17.3794 45.2083 9.87391C41.6606 19.233 19.3417 19.9057 22.9545 40.099C29.4611 41.0696 36.2488 38.3085 40.8854 32.0119Z" fill="#5B78CD"/>
<path d="M64.9217 20.1443L58.7441 6.10444H60.9103L66.5864 19.0612H65.3429L71.0591 6.10444H73.0648L66.9073 20.1443H64.9217ZM74.8552 20.1443V6.10444H76.8609V20.1443H74.8552ZM81.0642 20.1443V6.10444H82.7089L91.9953 17.6372H91.1328V6.10444H93.1385V20.1443H91.4939L82.2075 8.61156H83.0699V20.1443H81.0642ZM100.731 20.1443V14.7691L101.192 16.0126L95.1547 6.10444H97.3008L102.375 14.4682H101.212L106.306 6.10444H108.292L102.275 16.0126L102.716 14.7691V20.1443H100.731ZM107.359 20.1443L113.717 6.10444H115.702L122.081 20.1443H119.975L114.298 7.22763H115.101L109.425 20.1443H107.359ZM110.066 16.6344L110.608 15.0298H118.51L119.092 16.6344H110.066ZM128.267 20.3048C127.197 20.3048 126.174 20.1443 125.198 19.8234C124.222 19.4891 123.453 19.0612 122.891 18.5398L123.633 16.9753C124.168 17.4433 124.85 17.8311 125.679 18.1386C126.508 18.4462 127.371 18.5999 128.267 18.5999C129.082 18.5999 129.744 18.5063 130.252 18.3191C130.76 18.1319 131.135 17.8779 131.375 17.557C131.616 17.2227 131.736 16.8483 131.736 16.4338C131.736 15.9524 131.576 15.5646 131.255 15.2705C130.948 14.9763 130.54 14.7423 130.032 14.5685C129.537 14.3813 128.989 14.2208 128.387 14.0871C127.785 13.9534 127.177 13.7996 126.562 13.6258C125.96 13.4386 125.405 13.2046 124.897 12.9238C124.402 12.643 124.001 12.2686 123.694 11.8006C123.386 11.3193 123.232 10.7042 123.232 9.95538C123.232 9.23333 123.42 8.57145 123.794 7.96974C124.182 7.35466 124.77 6.8666 125.559 6.50558C126.361 6.13118 127.377 5.94398 128.608 5.94398C129.423 5.94398 130.232 6.05095 131.034 6.26489C131.837 6.47883 132.532 6.78637 133.12 7.18751L132.459 8.79207C131.857 8.39093 131.222 8.10345 130.553 7.92962C129.885 7.74242 129.236 7.64882 128.608 7.64882C127.819 7.64882 127.17 7.74911 126.662 7.94968C126.154 8.15025 125.78 8.41768 125.539 8.75196C125.312 9.08624 125.198 9.46064 125.198 9.87515C125.198 10.3699 125.352 10.7643 125.659 11.0585C125.98 11.3527 126.388 11.5867 126.883 11.7605C127.391 11.9343 127.946 12.0948 128.547 12.2419C129.149 12.3756 129.751 12.5294 130.353 12.7032C130.968 12.877 131.523 13.1043 132.017 13.3851C132.525 13.6659 132.933 14.0403 133.241 14.5083C133.548 14.9763 133.702 15.578 133.702 16.3134C133.702 17.0221 133.508 17.684 133.12 18.2991C132.733 18.9008 132.131 19.3888 131.315 19.7632C130.513 20.1243 129.497 20.3048 128.267 20.3048ZM134.506 20.1443L140.864 6.10444H142.85L149.228 20.1443H147.122L141.446 7.22763H142.248L136.572 20.1443H134.506ZM137.214 16.6344L137.755 15.0298H145.658L146.24 16.6344H137.214Z" fill="#030C26"/>
<path d="M60.6065 38.8535C60.3133 38.8535 60.032 38.806 59.7626 38.7109C59.5011 38.6158 59.2752 38.4731 59.085 38.2829L59.4773 37.6529C59.6358 37.8035 59.8062 37.9184 59.9884 37.9976C60.1786 38.0848 60.3886 38.1284 60.6184 38.1284C60.8958 38.1284 61.1335 38.0492 61.3317 37.8907C61.5377 37.7401 61.7318 37.4707 61.9141 37.0823L62.3183 36.167L62.4134 36.0363L64.981 30.2473H65.8131L62.6868 37.2369C62.5124 37.641 62.3183 37.962 62.1043 38.1997C61.8983 38.4375 61.6724 38.6039 61.4267 38.699C61.1811 38.802 60.9077 38.8535 60.6065 38.8535ZM62.2707 36.6663L59.3941 30.2473H60.2737L62.8175 35.9768L62.2707 36.6663ZM71.3922 36.5474C70.7899 36.5474 70.247 36.4127 69.7636 36.1433C69.2882 35.8659 68.9117 35.4895 68.6344 35.014C68.357 34.5306 68.2183 33.9798 68.2183 33.3617C68.2183 32.7357 68.357 32.1849 68.6344 31.7094C68.9117 31.2339 69.2882 30.8615 69.7636 30.592C70.2391 30.3226 70.782 30.1879 71.3922 30.1879C72.0103 30.1879 72.5571 30.3226 73.0326 30.592C73.516 30.8615 73.8924 31.2339 74.1618 31.7094C74.4392 32.1849 74.5779 32.7357 74.5779 33.3617C74.5779 33.9798 74.4392 34.5306 74.1618 35.014C73.8924 35.4895 73.516 35.8659 73.0326 36.1433C72.5492 36.4127 72.0024 36.5474 71.3922 36.5474ZM71.3922 35.7985C71.8439 35.7985 72.2441 35.6995 72.5927 35.5014C72.9414 35.2953 73.2148 35.01 73.4129 34.6455C73.619 34.273 73.722 33.8451 73.722 33.3617C73.722 32.8704 73.619 32.4424 73.4129 32.0779C73.2148 31.7134 72.9414 31.432 72.5927 31.2339C72.2441 31.0279 71.8478 30.9249 71.404 30.9249C70.9603 30.9249 70.564 31.0279 70.2153 31.2339C69.8667 31.432 69.5893 31.7134 69.3832 32.0779C69.1772 32.4424 69.0742 32.8704 69.0742 33.3617C69.0742 33.8451 69.1772 34.273 69.3832 34.6455C69.5893 35.01 69.8667 35.2953 70.2153 35.5014C70.564 35.6995 70.9563 35.7985 71.3922 35.7985ZM80.9844 38.8535C80.4138 38.8535 79.867 38.7703 79.344 38.6039C78.821 38.4375 78.397 38.1997 78.0721 37.8907L78.5 37.2488C78.7932 37.5103 79.1538 37.7163 79.5817 37.8669C80.0176 38.0254 80.4772 38.1046 80.9606 38.1046C81.7531 38.1046 82.3356 37.9184 82.708 37.5459C83.0805 37.1814 83.2667 36.6108 83.2667 35.8342V34.277L83.3856 33.2072L83.3024 32.1373V30.2473H84.1107V35.7272C84.1107 36.805 83.8452 37.5935 83.3143 38.0927C82.7912 38.5999 82.0146 38.8535 80.9844 38.8535ZM80.8299 36.2503C80.2355 36.2503 79.7006 36.1235 79.2251 35.8699C78.7497 35.6084 78.3732 35.2478 78.0959 34.7881C77.8264 34.3285 77.6917 33.8015 77.6917 33.2072C77.6917 32.6128 77.8264 32.0898 78.0959 31.6381C78.3732 31.1785 78.7497 30.8218 79.2251 30.5683C79.7006 30.3147 80.2355 30.1879 80.8299 30.1879C81.3846 30.1879 81.8839 30.3028 82.3276 30.5326C82.7714 30.7624 83.1241 31.1032 83.3856 31.5549C83.6471 32.0066 83.7779 32.5574 83.7779 33.2072C83.7779 33.857 83.6471 34.4078 83.3856 34.8595C83.1241 35.3112 82.7714 35.6559 82.3276 35.8936C81.8839 36.1314 81.3846 36.2503 80.8299 36.2503ZM80.9131 35.5014C81.3727 35.5014 81.7808 35.4063 82.1375 35.2161C82.4941 35.018 82.7754 34.7485 82.9814 34.4078C83.1875 34.0591 83.2905 33.6589 83.2905 33.2072C83.2905 32.7555 83.1875 32.3592 82.9814 32.0185C82.7754 31.6777 82.4941 31.4122 82.1375 31.222C81.7808 31.0239 81.3727 30.9249 80.9131 30.9249C80.4614 30.9249 80.0533 31.0239 79.6887 31.222C79.3321 31.4122 79.0508 31.6777 78.8448 32.0185C78.6466 32.3592 78.5476 32.7555 78.5476 33.2072C78.5476 33.6589 78.6466 34.0591 78.8448 34.4078C79.0508 34.7485 79.3321 35.018 79.6887 35.2161C80.0533 35.4063 80.4614 35.5014 80.9131 35.5014ZM92.3908 36.488V35.1091L92.3552 34.8832V32.5772C92.3552 32.0462 92.2046 31.6381 91.9035 31.3528C91.6103 31.0675 91.1704 30.9249 90.584 30.9249C90.1799 30.9249 89.7955 30.9922 89.431 31.1269C89.0664 31.2617 88.7574 31.44 88.5038 31.6619L88.1234 31.0319C88.4404 30.7624 88.8208 30.5564 89.2646 30.4137C89.7083 30.2632 90.1759 30.1879 90.6672 30.1879C91.4755 30.1879 92.0976 30.39 92.5335 30.7941C92.9773 31.1903 93.1992 31.7966 93.1992 32.6128V36.488H92.3908ZM90.2393 36.5474C89.7717 36.5474 89.3636 36.4721 89.0149 36.3216C88.6742 36.1631 88.4127 35.9491 88.2304 35.6797C88.0481 35.4023 87.957 35.0853 87.957 34.7287C87.957 34.4038 88.0323 34.1106 88.1828 33.8491C88.3413 33.5796 88.5949 33.3657 88.9436 33.2072C89.3002 33.0408 89.7757 32.9575 90.3701 32.9575H92.5216V33.5876H90.3938C89.7915 33.5876 89.3715 33.6945 89.1338 33.9085C88.904 34.1225 88.7891 34.388 88.7891 34.7049C88.7891 35.0615 88.9278 35.3468 89.2051 35.5608C89.4825 35.7748 89.8708 35.8818 90.3701 35.8818C90.8455 35.8818 91.2537 35.7748 91.5944 35.5608C91.9431 35.3389 92.1967 35.0219 92.3552 34.6098L92.5454 35.1923C92.3869 35.6044 92.1095 35.9333 91.7133 36.1789C91.325 36.4246 90.8336 36.5474 90.2393 36.5474ZM104.32 36.5474C103.805 36.5474 103.318 36.4761 102.858 36.3335C102.398 36.1829 102.038 35.9967 101.776 35.7748L102.157 35.1091C102.41 35.2993 102.735 35.4657 103.131 35.6084C103.528 35.7431 103.944 35.8104 104.38 35.8104C104.974 35.8104 105.402 35.7193 105.663 35.537C105.925 35.3468 106.056 35.0972 106.056 34.7881C106.056 34.5583 105.98 34.38 105.83 34.2532C105.687 34.1185 105.497 34.0195 105.259 33.9561C105.021 33.8847 104.756 33.8253 104.463 33.7778C104.17 33.7302 103.876 33.6747 103.583 33.6113C103.298 33.5479 103.036 33.4568 102.799 33.3379C102.561 33.2111 102.367 33.0408 102.216 32.8268C102.073 32.6128 102.002 32.3275 102.002 31.9709C102.002 31.6302 102.097 31.3251 102.287 31.0556C102.478 30.7862 102.755 30.5762 103.12 30.4256C103.492 30.2671 103.944 30.1879 104.475 30.1879C104.879 30.1879 105.283 30.2433 105.687 30.3543C106.091 30.4573 106.424 30.596 106.686 30.7703L106.317 31.4479C106.04 31.2577 105.743 31.123 105.426 31.0437C105.109 30.9566 104.792 30.913 104.475 30.913C103.912 30.913 103.496 31.012 103.227 31.2102C102.965 31.4003 102.834 31.646 102.834 31.9472C102.834 32.1849 102.906 32.3711 103.048 32.5058C103.199 32.6406 103.393 32.7475 103.631 32.8268C103.876 32.8981 104.142 32.9575 104.427 33.0051C104.72 33.0526 105.01 33.1121 105.295 33.1834C105.588 33.2468 105.854 33.3379 106.091 33.4568C106.337 33.5677 106.531 33.7302 106.674 33.9442C106.824 34.1502 106.9 34.4236 106.9 34.7644C106.9 35.1289 106.797 35.4459 106.591 35.7153C106.392 35.9768 106.099 36.1829 105.711 36.3335C105.331 36.4761 104.867 36.5474 104.32 36.5474ZM112.442 36.5474C111.856 36.5474 111.404 36.3889 111.087 36.0719C110.77 35.755 110.612 35.3072 110.612 34.7287V28.8684H111.456V34.6812C111.456 35.0457 111.547 35.327 111.729 35.5251C111.919 35.7233 112.189 35.8223 112.537 35.8223C112.91 35.8223 113.219 35.7153 113.465 35.5014L113.762 36.1076C113.595 36.2582 113.393 36.3691 113.156 36.4404C112.926 36.5118 112.688 36.5474 112.442 36.5474ZM109.494 30.9486V30.2473H113.358V30.9486H109.494ZM119.898 36.5474C119.367 36.5474 118.904 36.4484 118.508 36.2503C118.111 36.0521 117.802 35.755 117.58 35.3587C117.366 34.9625 117.259 34.4672 117.259 33.8728V30.2473H118.103V33.7778C118.103 34.4434 118.266 34.9466 118.591 35.2874C118.924 35.6202 119.387 35.7867 119.982 35.7867C120.417 35.7867 120.794 35.6995 121.111 35.5251C121.436 35.3429 121.681 35.0814 121.848 34.7406C122.022 34.3998 122.109 33.9917 122.109 33.5162V30.2473H122.953V36.488H122.145V34.7763L122.276 35.0853C122.078 35.545 121.769 35.9055 121.349 36.167C120.937 36.4206 120.453 36.5474 119.898 36.5474ZM129.811 36.5474C129.216 36.5474 128.681 36.4127 128.206 36.1433C127.738 35.8738 127.37 35.5014 127.1 35.0259C126.831 34.5425 126.696 33.9878 126.696 33.3617C126.696 32.7277 126.831 32.173 127.1 31.6975C127.37 31.222 127.738 30.8535 128.206 30.592C128.681 30.3226 129.216 30.1879 129.811 30.1879C130.358 30.1879 130.845 30.3107 131.273 30.5564C131.709 30.802 132.053 31.1626 132.307 31.6381C132.568 32.1056 132.699 32.6802 132.699 33.3617C132.699 34.0353 132.572 34.6098 132.319 35.0853C132.065 35.5608 131.721 35.9253 131.285 36.1789C130.857 36.4246 130.365 36.5474 129.811 36.5474ZM129.87 35.7985C130.314 35.7985 130.71 35.6995 131.059 35.5014C131.415 35.2953 131.693 35.01 131.891 34.6455C132.097 34.273 132.2 33.8451 132.2 33.3617C132.2 32.8704 132.097 32.4424 131.891 32.0779C131.693 31.7134 131.415 31.432 131.059 31.2339C130.71 31.0279 130.314 30.9249 129.87 30.9249C129.434 30.9249 129.042 31.0279 128.693 31.2339C128.345 31.432 128.067 31.7134 127.861 32.0779C127.655 32.4424 127.552 32.8704 127.552 33.3617C127.552 33.8451 127.655 34.273 127.861 34.6455C128.067 35.01 128.345 35.2953 128.693 35.5014C129.042 35.6995 129.434 35.7985 129.87 35.7985ZM132.224 36.488V34.6098L132.307 33.3498L132.188 32.0898V27.6678H133.032V36.488H132.224ZM137.403 36.488V30.2473H138.247V36.488H137.403ZM137.831 28.8684C137.657 28.8684 137.51 28.809 137.391 28.6901C137.273 28.5712 137.213 28.4286 137.213 28.2622C137.213 28.0958 137.273 27.9571 137.391 27.8461C137.51 27.7273 137.657 27.6678 137.831 27.6678C138.006 27.6678 138.152 27.7233 138.271 27.8342C138.39 27.9452 138.449 28.0839 138.449 28.2503C138.449 28.4246 138.39 28.5712 138.271 28.6901C138.16 28.809 138.014 28.8684 137.831 28.8684ZM145.16 36.5474C144.558 36.5474 144.015 36.4127 143.532 36.1433C143.056 35.8659 142.68 35.4895 142.402 35.014C142.125 34.5306 141.986 33.9798 141.986 33.3617C141.986 32.7357 142.125 32.1849 142.402 31.7094C142.68 31.2339 143.056 30.8615 143.532 30.592C144.007 30.3226 144.55 30.1879 145.16 30.1879C145.778 30.1879 146.325 30.3226 146.801 30.592C147.284 30.8615 147.661 31.2339 147.93 31.7094C148.207 32.1849 148.346 32.7357 148.346 33.3617C148.346 33.9798 148.207 34.5306 147.93 35.014C147.661 35.4895 147.284 35.8659 146.801 36.1433C146.317 36.4127 145.77 36.5474 145.16 36.5474ZM145.16 35.7985C145.612 35.7985 146.012 35.6995 146.361 35.5014C146.71 35.2953 146.983 35.01 147.181 34.6455C147.387 34.273 147.49 33.8451 147.49 33.3617C147.49 32.8704 147.387 32.4424 147.181 32.0779C146.983 31.7134 146.71 31.432 146.361 31.2339C146.012 31.0279 145.616 30.9249 145.172 30.9249C144.728 30.9249 144.332 31.0279 143.983 31.2339C143.635 31.432 143.357 31.7134 143.151 32.0779C142.945 32.4424 142.842 32.8704 142.842 33.3617C142.842 33.8451 142.945 34.273 143.151 34.6455C143.357 35.01 143.635 35.2953 143.983 35.5014C144.332 35.6995 144.724 35.7985 145.16 35.7985Z" fill="#7F8187"/>
</g>
<defs>
<clipPath id="clip0_1_659">
<rect width="150" height="41" fill="white"/>
</clipPath>
</defs>
</svg>
