<svg width="33" height="33" viewBox="0 0 33 33" fill="none" xmlns="http://www.w3.org/2000/svg">
<g clip-path="url(#clip0_8_2572)">
<path d="M3.16735 11.5281C3.58479 11.8226 4.84313 12.6975 6.94242 14.1522C9.04177 15.607 10.65 16.7271 11.7672 17.5126C11.89 17.5987 12.1507 17.7859 12.5497 18.0744C12.9487 18.3631 13.2802 18.5964 13.544 18.7744C13.808 18.9523 14.1272 19.1518 14.5018 19.3728C14.8763 19.5935 15.2293 19.7595 15.5607 19.8694C15.8923 19.9802 16.1992 20.0351 16.4815 20.0351H16.5H16.5186C16.8009 20.0351 17.1079 19.9802 17.4394 19.8694C17.7708 19.7595 18.1241 19.5933 18.4983 19.3728C18.8726 19.1516 19.1918 18.9522 19.4558 18.7744C19.7198 18.5964 20.0511 18.3631 20.4502 18.0744C20.8491 17.7857 21.1102 17.5987 21.2329 17.5126C22.3622 16.7271 25.2352 14.732 29.8511 11.5277C30.7473 10.9018 31.496 10.1466 32.0975 9.26267C32.6994 8.37908 33 7.45215 33 6.48239C33 5.67201 32.7083 4.97831 32.1251 4.40135C31.5419 3.82427 30.8512 3.53589 30.0535 3.53589H2.94631C2.00106 3.53589 1.27362 3.85504 0.764134 4.49333C0.254711 5.13175 0 5.92975 0 6.88726C0 7.66068 0.337723 8.4988 1.01285 9.40109C1.68791 10.3034 2.40631 11.0125 3.16735 11.5281Z" fill="white"/>
<path d="M31.1583 13.4983C27.1319 16.2235 24.0746 18.3414 21.9878 19.8516C21.288 20.3671 20.7204 20.7694 20.2844 21.0577C19.8485 21.3462 19.2687 21.6409 18.5442 21.9415C17.82 22.2426 17.1451 22.3927 16.5188 22.3927H16.5001H16.4816C15.8554 22.3927 15.1801 22.2426 14.4559 21.9415C13.7317 21.6409 13.1515 21.3462 12.7157 21.0577C12.28 20.7694 11.7121 20.3671 11.0124 19.8516C9.35499 18.6363 6.30425 16.5183 1.86012 13.4983C1.16017 13.0321 0.540189 12.4977 0 11.8962V26.5175C0 27.3282 0.288381 28.0216 0.865464 28.5986C1.44242 29.1758 2.13618 29.4643 2.9465 29.4643H30.0538C30.8639 29.4643 31.5576 29.1758 32.1346 28.5986C32.7118 28.0214 33.0001 27.3283 33.0001 26.5175V11.8962C32.4721 12.4853 31.8584 13.0196 31.1583 13.4983Z" fill="white"/>
</g>
<defs>
<clipPath id="clip0_8_2572">
<rect width="33" height="33" fill="white"/>
</clipPath>
</defs>
</svg>
