<svg width="30" height="30" viewBox="0 0 30 30" fill="none" xmlns="http://www.w3.org/2000/svg">
<path d="M18.3041 14.999L29.5207 3.78195C29.8293 3.47317 29.9995 3.06122 30 2.62195C30 2.18244 29.8298 1.77 29.5207 1.46171L28.5378 0.479024C28.2288 0.169512 27.8168 0 27.3771 0C26.938 0 26.5261 0.169512 26.2171 0.479024L15.0005 11.6954L3.78341 0.479024C3.47488 0.169512 3.06268 0 2.62317 0C2.18415 0 1.77195 0.169512 1.46341 0.479024L0.48 1.46171C-0.16 2.10171 -0.16 3.14268 0.48 3.78195L11.6968 14.999L0.48 26.2156C0.171219 26.5249 0.00121951 26.9368 0.00121951 27.3761C0.00121951 27.8154 0.171219 28.2273 0.48 28.5363L1.46317 29.519C1.77171 29.8283 2.18415 29.998 2.62293 29.998C3.06244 29.998 3.47463 29.8283 3.78317 29.519L15.0002 18.3024L26.2168 29.519C26.5258 29.8283 26.9378 29.998 27.3768 29.998C27.8161 29.998 28.2285 29.8283 28.5376 29.519L29.5205 28.5363C29.829 28.2276 29.9993 27.8154 29.9993 27.3761C29.9993 26.9368 29.829 26.5249 29.5205 26.2159L18.3041 14.999Z" fill="#DADADA"/>
</svg>
