<svg width="35" height="35" viewBox="0 0 35 35" fill="none" xmlns="http://www.w3.org/2000/svg">
<path d="M32.8508 24.719C32.7611 24.6479 26.25 19.9546 24.4628 20.2915C23.6097 20.4424 23.1219 21.0243 22.143 22.1892C21.9855 22.3773 21.607 22.8279 21.3128 23.1484C20.6942 22.9466 20.0907 22.701 19.507 22.4134C16.4943 20.9467 14.0601 18.5125 12.5934 15.4998C12.3056 14.9162 12.06 14.3127 11.8584 13.694C12.18 13.3987 12.6306 13.0202 12.8231 12.8584C13.9825 11.8849 14.5655 11.3971 14.7164 10.5418C15.0259 8.76993 10.3359 2.21399 10.2867 2.15493C10.0739 1.85095 9.79623 1.59806 9.4737 1.41458C9.15118 1.23109 8.79191 1.12159 8.42188 1.09399C6.52094 1.09399 1.09375 8.13446 1.09375 9.32009C1.09375 9.38899 1.19328 16.3934 9.83062 25.1795C18.608 33.807 25.6112 33.9065 25.6802 33.9065C26.8669 33.9065 33.9062 28.4793 33.9062 26.5784C33.879 26.2096 33.7701 25.8516 33.5876 25.53C33.4051 25.2084 33.1534 24.9314 32.8508 24.719Z" fill="white"/>
</svg>
