<svg width="56" height="33" viewBox="0 0 56 33" fill="none" xmlns="http://www.w3.org/2000/svg">
<path d="M25.634 0.886985L0.887889 25.6335C0.315079 26.2059 -0.0004861 26.9699 -0.000486064 27.7846C-0.000486028 28.5993 0.315079 29.3634 0.887889 29.9357L2.70985 31.7581C3.89706 32.944 5.82662 32.944 7.01202 31.7581L27.7923 10.9778L48.5956 31.7812C49.1685 32.3535 49.9321 32.6696 50.7463 32.6696C51.5614 32.6696 52.325 32.3535 52.8983 31.7812L54.7198 29.9588C55.2926 29.386 55.6082 28.6224 55.6082 27.8077C55.6082 26.993 55.2926 26.2289 54.7198 25.6566L29.9511 0.886984C29.3765 0.313273 28.6093 -0.00183993 27.7937 -3.17325e-05C26.9749 -0.00183986 26.2081 0.313273 25.634 0.886985Z" fill="white"/>
</svg>
