<svg width="14" height="15" viewBox="0 0 14 15" fill="none" xmlns="http://www.w3.org/2000/svg">
<mask id="mask0_2_513" style="mask-type:luminance" maskUnits="userSpaceOnUse" x="1" y="0" width="13" height="15">
<path d="M13.4057 0H1.1875V15H13.4057V0Z" fill="white"/>
</mask>
<g mask="url(#mask0_2_513)">
<path d="M13.4057 5.25C13.4057 5.45312 13.3301 5.6289 13.179 5.77734L7.83352 11.0273C7.68239 11.1758 7.50342 11.25 7.2966 11.25C7.08978 11.25 6.9108 11.1758 6.75966 11.0273L1.4142 5.77734C1.26307 5.6289 1.1875 5.45312 1.1875 5.25C1.1875 5.04687 1.26307 4.87109 1.4142 4.72265C1.56534 4.57421 1.74432 4.5 1.95114 4.5H12.6421C12.8489 4.5 13.0278 4.57421 13.179 4.72265C13.3301 4.87109 13.4057 5.04687 13.4057 5.25Z" fill="#A5A5A5"/>
</g>
</svg>
