<svg width="19" height="19" viewBox="0 0 19 19" fill="none" xmlns="http://www.w3.org/2000/svg">
<g clip-path="url(#clip0_8_2586)">
<path d="M0.332853 9.08581L4.67504 10.7065L6.35574 16.1116C6.46328 16.4577 6.88659 16.5857 7.16757 16.356L9.58798 14.3828C9.84169 14.1761 10.2031 14.1658 10.4682 14.3582L14.8338 17.5277C15.1343 17.7462 15.5602 17.5815 15.6356 17.2183L18.8336 1.83532C18.9158 1.43858 18.526 1.1076 18.1482 1.25371L0.327765 8.12831C-0.112007 8.29792 -0.108176 8.92055 0.332853 9.08581ZM6.08488 9.84375L14.5711 4.61705C14.7237 4.52339 14.8806 4.72961 14.7496 4.8511L7.74597 11.3613C7.4998 11.5905 7.341 11.8971 7.29603 12.23L7.05745 13.998C7.02586 14.2341 6.69425 14.2575 6.62911 14.029L5.71157 10.805C5.60647 10.4373 5.75962 10.0445 6.08488 9.84375Z" fill="white"/>
</g>
<defs>
<clipPath id="clip0_8_2586">
<rect width="18.8447" height="18.8447" fill="white"/>
</clipPath>
</defs>
</svg>
