<svg width="19" height="19" viewBox="0 0 19 19" fill="none" xmlns="http://www.w3.org/2000/svg">
<g clip-path="url(#clip0_8_2590)">
<path d="M18.8447 3.57935C18.1439 3.88675 17.3972 4.09051 16.6187 4.18944C17.4196 3.71126 18.0308 2.95983 18.3182 2.0541C17.5715 2.49931 16.747 2.81378 15.8684 2.98927C15.1594 2.23431 14.1488 1.76672 13.0464 1.76672C10.9075 1.76672 9.1856 3.50279 9.1856 5.63106C9.1856 5.93729 9.21152 6.23174 9.27512 6.51205C6.06328 6.3554 3.22126 4.81603 1.31206 2.47104C0.978746 3.04934 0.783232 3.71126 0.783232 4.42382C0.783232 5.7618 1.47224 6.94783 2.49928 7.63449C1.87858 7.62271 1.26966 7.44251 0.753787 7.15866C0.753787 7.17044 0.753787 7.18575 0.753787 7.20106C0.753787 9.07846 2.09294 10.6379 3.84903 10.9971C3.53456 11.0831 3.19182 11.1243 2.83612 11.1243C2.58879 11.1243 2.3391 11.1102 2.10472 11.0583C2.60528 12.5883 4.0257 13.7131 5.71465 13.7496C4.40023 14.7778 2.7313 15.3973 0.924567 15.3973C0.607741 15.3973 0.30387 15.3832 0 15.3443C1.71133 16.4479 3.73949 17.078 5.92665 17.078C13.0358 17.078 16.9225 11.1891 16.9225 6.08451C16.9225 5.91373 16.9166 5.74884 16.9084 5.58513C17.6751 5.04099 18.3194 4.3614 18.8447 3.57935Z" fill="white"/>
</g>
<defs>
<clipPath id="clip0_8_2590">
<rect width="18.8447" height="18.8447" fill="white"/>
</clipPath>
</defs>
</svg>
