<svg width="19" height="19" viewBox="0 0 19 19" fill="none" xmlns="http://www.w3.org/2000/svg">
<g clip-path="url(#clip0_8_2581)">
<path d="M9.42567 0.00012207H9.42096C4.22572 0.00012207 0.000976562 4.22604 0.000976562 9.42246C0.000976562 11.4836 0.665252 13.394 1.79475 14.9451L0.620495 18.4455L4.24221 17.2878C5.73212 18.2748 7.5094 18.8448 9.42567 18.8448C14.6209 18.8448 18.8457 14.6177 18.8457 9.42246C18.8457 4.22722 14.6209 0.00012207 9.42567 0.00012207ZM14.9083 13.3056C14.681 13.9475 13.7788 14.4799 13.0592 14.6354C12.5668 14.7402 11.9238 14.8238 9.75899 13.9263C6.99 12.7792 5.20682 9.96542 5.06784 9.78287C4.93475 9.60031 3.94894 8.29296 3.94894 6.94085C3.94894 5.58875 4.63559 4.93036 4.91237 4.64769C5.13969 4.41567 5.5154 4.30966 5.87581 4.30966C5.99241 4.30966 6.09723 4.31555 6.19145 4.32027C6.46824 4.33204 6.60721 4.34853 6.78977 4.78549C7.01709 5.33317 7.57065 6.68527 7.63661 6.82425C7.70374 6.96323 7.77087 7.15168 7.67665 7.33424C7.58832 7.52268 7.51058 7.60631 7.3716 7.76649C7.23262 7.92667 7.10071 8.04916 6.96173 8.22111C6.83453 8.37069 6.69084 8.53087 6.85102 8.80766C7.0112 9.07855 7.56476 9.98191 8.37979 10.7074C9.43156 11.6438 10.2843 11.9429 10.5893 12.0701C10.8166 12.1644 11.0875 12.142 11.2536 11.9653C11.4644 11.738 11.7247 11.3611 11.9897 10.9901C12.1782 10.7239 12.4161 10.6909 12.6658 10.7852C12.9202 10.8735 14.2664 11.539 14.5432 11.6768C14.82 11.8157 15.0025 11.8817 15.0697 11.9983C15.1356 12.1149 15.1356 12.6626 14.9083 13.3056Z" fill="white"/>
</g>
<defs>
<clipPath id="clip0_8_2581">
<rect width="18.8447" height="18.8447" fill="white"/>
</clipPath>
</defs>
</svg>
